<?xml version="1.0" encoding="UTF-8" standalone="no"?>
<svg width="48" height="48" viewBox="0 0 48 48" fill="none" xmlns="http://www.w3.org/2000/svg">
  <title>no react</title>
  <desc>React atom icon with a red dashed prohibition ring.</desc>
  <defs>
    <linearGradient id="reactGradient" x1="11.6212" y1="7.6286" x2="25.2392" y2="39.2455" gradientUnits="userSpaceOnUse">
      <stop stop-color="#00ADE7"/>
      <stop offset="1" stop-color="#04E3D5"/>
    </linearGradient>
  </defs>

  <g transform="translate(5 8) scale(1.1875)" fill="url(#reactGradient)">
    <ellipse cx="16" cy="14.1309" rx="2.8533" ry="2.842"/>
    <path d="M16 20.6415C11.9929 20.6415 8.49165 20.1716 5.8714 19.2771C4.17194 18.6996 2.72824 17.9297 1.69947 17.0522C0.608171 16.1237 0.0284192 15.1103 0.0284192 14.1309C0.0284192 12.2513 2.09734 10.4113 5.57016 9.21111C8.41208 8.22602 12.1179 7.67686 15.9943 7.67686C19.8025 7.67686 23.4572 8.20904 26.2821 9.1828C27.9361 9.74894 29.3286 10.4849 30.3176 11.3002C31.3918 12.1947 31.9602 13.1741 31.9602 14.1309C31.9602 16.0841 29.6469 18.0599 25.9183 19.2884C23.281 20.1603 19.757 20.6415 16 20.6415ZM16 9.0356C12.3226 9.0356 8.6849 9.56777 6.02487 10.4906C2.83055 11.6002 1.39822 13.1175 1.39822 14.1309C1.39822 15.1839 2.93854 16.8427 6.31474 17.9919C8.7929 18.8355 12.1464 19.2827 16 19.2827C19.6149 19.2827 22.9854 18.8298 25.492 17.9976C28.9989 16.837 30.6018 15.1782 30.6018 14.1309C30.6018 13.593 30.1925 12.959 29.448 12.3419C28.5897 11.6285 27.3393 10.9775 25.8444 10.4623C23.156 9.54513 19.6604 9.0356 16 9.0356Z"/>
    <path d="M9.52611 28.2957C8.94636 28.2957 8.43481 28.1711 8.00284 27.922C6.37158 26.9823 5.8032 24.2761 6.49094 20.6811C7.05364 17.7315 8.42913 14.2667 10.3673 10.9208C12.2714 7.63723 14.5563 4.74992 16.8128 2.79673C18.1314 1.65313 19.4671 0.815242 20.6721 0.373653C21.9851 -0.107567 23.1218 -0.107567 23.9517 0.367991C25.6512 1.34175 26.2139 4.33097 25.4181 8.15808C24.8554 10.8756 23.514 14.1535 21.6384 17.3975C19.6377 20.851 17.4778 23.6364 15.3918 25.4537C14.0391 26.6312 12.6465 27.4918 11.3734 27.939C10.7083 28.1768 10.0831 28.2957 9.52611 28.2957ZM10.9528 11.2605L11.5439 11.6002C9.70799 14.7706 8.34956 18.1731 7.82664 20.9359C7.19574 24.2478 7.80391 26.2406 8.67922 26.7445C8.8952 26.869 9.1794 26.937 9.52611 26.937C10.6572 26.937 12.4362 26.2236 14.4938 24.4346C16.4661 22.7192 18.5293 20.047 20.4561 16.7238C22.2636 13.6044 23.5481 10.4679 24.0824 7.892C24.827 4.28568 24.1847 2.07774 23.2696 1.55122C22.8036 1.28514 22.0476 1.31911 21.1382 1.65313C20.0867 2.03811 18.8988 2.79107 17.7052 3.82711C15.5623 5.68405 13.3741 8.44682 11.5439 11.6059L10.9528 11.2605Z"/>
    <path d="M22.4739 28.3127C20.9279 28.3127 18.967 27.3842 16.9208 25.6292C14.6359 23.6703 12.3112 20.7547 10.3673 17.4088C8.45755 14.1252 7.09343 10.7114 6.51936 7.78443C6.18401 6.07469 6.12149 4.50648 6.33748 3.24398C6.5762 1.86826 7.1389 0.888841 7.97442 0.407621C9.66821 -0.571802 12.5499 0.435928 15.4828 3.03451C17.5631 4.87447 19.7456 7.6712 21.627 10.9095C23.6334 14.363 24.9805 17.6183 25.5147 20.3244C25.8615 22.0795 25.9183 23.71 25.6739 25.0347C25.4124 26.4444 24.8213 27.4465 23.9687 27.939C23.5425 28.1881 23.0366 28.3127 22.4739 28.3127ZM11.5496 16.7295C13.3911 19.8998 15.676 22.7702 17.8131 24.5988C20.3766 26.7954 22.4114 27.271 23.2924 26.7615C24.2075 26.2349 24.8782 24.078 24.1847 20.5905C23.6732 18.0316 22.3829 14.9178 20.4504 11.5946C18.6373 8.47512 16.5513 5.79728 14.579 4.05357C11.8167 1.60784 9.57726 1.05868 8.66217 1.58519C8.19609 1.85128 7.84938 2.52499 7.68455 3.4761C7.49698 4.57441 7.55382 5.97844 7.86075 7.52401C8.40639 10.3038 9.71368 13.5704 11.5496 16.7295Z"/>
  </g>

  <circle cx="24" cy="24" r="20" stroke="#E11D48" stroke-width="3" stroke-linecap="round" stroke-dasharray="5 5"/>
  <path d="M10.5 37.5L37.5 10.5" stroke="#E11D48" stroke-width="3.5" stroke-linecap="round"/>
</svg>
